<?xml version="1.0" standalone="no"?><!DOCTYPE svg PUBLIC "-//W3C//DTD SVG 1.1//EN" "http://www.w3.org/Graphics/SVG/1.1/DTD/svg11.dtd"><svg t="1646120612241" class="icon" viewBox="0 0 1024 1024" version="1.1" xmlns="http://www.w3.org/2000/svg" p-id="5593" xmlns:xlink="http://www.w3.org/1999/xlink" width="200" height="200"><defs><style type="text/css"></style></defs><path d="M107.00059738 310.39905188l370.77566748 179.06012979c9.65696842 4.59365185 22.59335083 7.03096463 35.29654843 7.03096544 12.75016416 0 25.64040399-2.4373136 35.29654844-7.03096544l370.77649145-179.06012979c19.54629684-9.42131168 19.54629684-24.79665564 0-34.21796731L548.4155043 97.16792051A85.17083422 85.17083422 0 0 0 513.07363727 90.13695587c-12.65623105 0-25.64040399 2.38952307-35.24958188 7.03096464L107.00059738 276.22805111c-19.50015427 9.37434512-19.50015427 24.74968909 0 34.17100077z" p-id="5594" fill="#1296db"></path><path d="M919.19199575 493.81882557l-76.73252178-37.03101252c-8.95329492-4.40660962-11.39060852-4.17177769-20.81274418 0.18786538-9.37434512 4.40578565-273.51137686 131.95109948-273.51137686 131.9510995-9.84400983 4.59365185-22.54720825 7.03096463-35.24958187 7.03096545s-25.64040399-2.4373136-35.29654761-7.03096545c0 0-257.05909973-124.02941913-269.10559122-129.93566006-13.1250726-6.37508249-16.87497529-6.37508249-28.7344237-0.65670695l-73.17048533 35.24958187c-19.50015427 9.42213564-19.50015427 24.79665564 0 34.2187913L477.35439068 706.86208991c9.65696842 4.59447583 22.59335083 6.98482205 35.29654843 6.98482288s25.64040399-2.39034705 35.29654844-7.03096546l370.77649146-179.0601298c19.96817102-9.18730371 19.96817102-24.51568029 0.46801674-33.93699196z" p-id="5595" fill="#1296db"></path><path d="M919.19199575 711.45656573l-76.73252178-37.0310125c-8.95329492-4.40660962-11.39060852-4.21874341-20.81274418 0.18704223C812.27238467 679.02002906 548.37018569 806.79852688 548.37018569 806.79852688c-9.84400983 4.54668531-22.54638427 6.9839989-35.29654842 6.98399891-12.65623105 0-25.64040399-2.4373136-35.24958188-7.03096464 0 0-257.10524231-124.02941913-269.15255695-129.93566088-13.12424863-6.37508249-16.87497529-6.37508249-28.686634-0.65588296l-73.21827585 35.29654842c-19.4993303 9.37434512-19.4993303 24.74886511 0 34.17100077l370.82345883 179.06012979c9.65614444 4.78151724 22.59335083 7.03096463 35.29654761 7.03096545 12.65623105 0 25.63958002-2.4373136 35.24958188-7.03096546l370.82263486-179.06012978c19.6871965-9.42213564 19.6871965-24.74968909 0.23400796-34.21796732z" p-id="5596" fill="#1296db"></path></svg>